<svg id="mermaid-1613507011612" width="100%" xmlns="http://www.w3.org/2000/svg" height="100%" viewBox="0 0 603 450"><style>#mermaid-1613507011612{font-family:"trebuchet ms",verdana,arial;font-size:16px;fill:#333;}#mermaid-1613507011612 .error-icon{fill:#552222;}#mermaid-1613507011612 .error-text{fill:#552222;stroke:#552222;}#mermaid-1613507011612 .edge-thickness-normal{stroke-width:2px;}#mermaid-1613507011612 .edge-thickness-thick{stroke-width:3.5px;}#mermaid-1613507011612 .edge-pattern-solid{stroke-dasharray:0;}#mermaid-1613507011612 .edge-pattern-dashed{stroke-dasharray:3;}#mermaid-1613507011612 .edge-pattern-dotted{stroke-dasharray:2;}#mermaid-1613507011612 .marker{fill:#333333;}#mermaid-1613507011612 .marker.cross{stroke:#333333;}#mermaid-1613507011612 svg{font-family:"trebuchet ms",verdana,arial;font-size:16px;}#mermaid-1613507011612 .pieTitleText{text-anchor:middle;font-size:25px;fill:black;font-family:"trebuchet ms",verdana,arial;}#mermaid-1613507011612 .slice{font-family:"trebuchet ms",verdana,arial;fill:#333;}#mermaid-1613507011612 .legend text{fill:black;font-family:"trebuchet ms",verdana,arial;font-size:17px;}#mermaid-1613507011612:root{--mermaid-font-family:"trebuchet ms",verdana,arial;}#mermaid-1613507011612 pie{fill:apa;}</style><g/><svg width="603" height="450"><g transform="translate(301.5,225)"><path d="M1.1327982892113017e-14,-185A185,185,0,0,1,160.21469970012117,92.49999999999997L0,0Z" fill="#66c2a5" stroke="black" style="stroke-width: 2px; opacity: 0.7;"/><path d="M160.21469970012117,92.49999999999997A185,185,0,0,1,1.1327982892113017e-14,185L0,0Z" fill="#fc8d62" stroke="black" style="stroke-width: 2px; opacity: 0.7;"/><path d="M1.1327982892113017e-14,185A185,185,0,0,1,-160.21469970012112,92.50000000000006L0,0Z" fill="#8da0cb" stroke="black" style="stroke-width: 2px; opacity: 0.7;"/><path d="M-160.21469970012112,92.50000000000006A185,185,0,0,1,-182.1894343072585,-32.124912868382054L0,0Z" fill="#e78ac3" stroke="black" style="stroke-width: 2px; opacity: 0.7;"/><path d="M-182.1894343072585,-32.124912868382054A185,185,0,0,1,-160.21469970012123,-92.49999999999989L0,0Z" fill="#a6d854" stroke="black" style="stroke-width: 2px; opacity: 0.7;"/><path d="M-160.21469970012123,-92.49999999999989A185,185,0,0,1,-118.91570779200994,-141.71822197701078L0,0Z" fill="#ffd92f" stroke="black" style="stroke-width: 2px; opacity: 0.7;"/><path d="M-118.91570779200994,-141.71822197701078A185,185,0,0,1,-63.27372651524899,-173.84313484539297L0,0Z" fill="#e5c494" stroke="black" style="stroke-width: 2px; opacity: 0.7;"/><path d="M-63.27372651524899,-173.84313484539297A185,185,0,0,1,-3.6260996396538543e-13,-185L0,0Z" fill="#b3b3b3" stroke="black" style="stroke-width: 2px; opacity: 0.7;"/><text transform="translate(80.10734985006057,-46.25)" class="slice" style="text-anchor: middle; font-size: 17px;">33%</text><text transform="translate(46.25000000000003,80.10734985006056)" class="slice" style="text-anchor: middle; font-size: 17px;">17%</text><text transform="translate(-46.24999999999998,80.10734985006059)" class="slice" style="text-anchor: middle; font-size: 17px;">17%</text><text transform="translate(-91.09471715362925,16.062456434191052)" class="slice" style="text-anchor: middle; font-size: 17px;">11%</text><text transform="translate(-86.92156742269654,-31.63686325762431)" class="slice" style="text-anchor: middle; font-size: 17px;">6%</text><text transform="translate(-70.85911098850553,-59.45785389600482)" class="slice" style="text-anchor: middle; font-size: 17px;">6%</text><text transform="translate(-46.250000000000114,-80.10734985006052)" class="slice" style="text-anchor: middle; font-size: 17px;">6%</text><text transform="translate(-16.06245643419122,-91.09471715362922)" class="slice" style="text-anchor: middle; font-size: 17px;">6%</text><text x="0" y="-200" class="pieTitleText">Second semestre de MPI</text><g class="legend" transform="translate(216,-88)"><rect width="18" height="18" style="fill: rgb(102, 194, 165); stroke: rgb(102, 194, 165);"/><text x="22" y="14">Maths</text></g><g class="legend" transform="translate(216,-66)"><rect width="18" height="18" style="fill: rgb(252, 141, 98); stroke: rgb(252, 141, 98);"/><text x="22" y="14">Phy/chi</text></g><g class="legend" transform="translate(216,-44)"><rect width="18" height="18" style="fill: rgb(141, 160, 203); stroke: rgb(141, 160, 203);"/><text x="22" y="14">Info</text></g><g class="legend" transform="translate(216,-22)"><rect width="18" height="18" style="fill: rgb(231, 138, 195); stroke: rgb(231, 138, 195);"/><text x="22" y="14">DS</text></g><g class="legend" transform="translate(216,0)"><rect width="18" height="18" style="fill: rgb(166, 216, 84); stroke: rgb(166, 216, 84);"/><text x="22" y="14">Colles</text></g><g class="legend" transform="translate(216,22)"><rect width="18" height="18" style="fill: rgb(255, 217, 47); stroke: rgb(255, 217, 47);"/><text x="22" y="14">LV1</text></g><g class="legend" transform="translate(216,44)"><rect width="18" height="18" style="fill: rgb(229, 196, 148); stroke: rgb(229, 196, 148);"/><text x="22" y="14">Philo</text></g><g class="legend" transform="translate(216,66)"><rect width="18" height="18" style="fill: rgb(179, 179, 179); stroke: rgb(179, 179, 179);"/><text x="22" y="14">TIPE</text></g></g></svg></svg>